<?xml version="1.0" encoding="UTF-8" standalone="no"?>
<!-- Created with Inkscape (http://www.inkscape.org/) -->

<svg
        xmlns:osb="http://www.openswatchbook.org/uri/2009/osb"
        xmlns:dc="http://purl.org/dc/elements/1.1/"
        xmlns:cc="http://creativecommons.org/ns#"
        xmlns:rdf="http://www.w3.org/1999/02/22-rdf-syntax-ns#"
        xmlns="http://www.w3.org/2000/svg"
        xmlns:xlink="http://www.w3.org/1999/xlink"
        xmlns:sodipodi="http://sodipodi.sourceforge.net/DTD/sodipodi-0.dtd"
        xmlns:inkscape="http://www.inkscape.org/namespaces/inkscape"
        width="151.66595mm"
        height="90.510178mm"
        viewBox="0 0 151.66595 90.510178"
        version="1.1"
        id="svg8"
        inkscape:version="0.92.3 (2405546, 2018-03-11)"
        sodipodi:docname="logo_straph.svg">
    <defs
            id="defs2">
        <linearGradient
                inkscape:collect="always"
                id="linearGradient6818">
            <stop
                    style="stop-color:#182e6b;stop-opacity:1;"
                    offset="0"
                    id="stop6814"/>
            <stop
                    style="stop-color:#182e6b;stop-opacity:0;"
                    offset="1"
                    id="stop6816"/>
        </linearGradient>
        <linearGradient
                inkscape:collect="always"
                id="linearGradient6753">
            <stop
                    style="stop-color:#b3b3b3;stop-opacity:1;"
                    offset="0"
                    id="stop6749"/>
            <stop
                    style="stop-color:#b3b3b3;stop-opacity:0;"
                    offset="1"
                    id="stop6751"/>
        </linearGradient>
        <linearGradient
                inkscape:collect="always"
                id="linearGradient6745">
            <stop
                    style="stop-color:#182e6b;stop-opacity:1;"
                    offset="0"
                    id="stop6741"/>
            <stop
                    style="stop-color:#182e6b;stop-opacity:0;"
                    offset="1"
                    id="stop6743"/>
        </linearGradient>
        <linearGradient
                id="linearGradient6737"
                osb:paint="solid">
            <stop
                    style="stop-color:#182e6b;stop-opacity:1;"
                    offset="0"
                    id="stop6735"/>
        </linearGradient>
        <linearGradient
                inkscape:collect="always"
                id="linearGradient6586">
            <stop
                    style="stop-color:#182e6b;stop-opacity:1;"
                    offset="0"
                    id="stop6582"/>
            <stop
                    style="stop-color:#182e6b;stop-opacity:0;"
                    offset="1"
                    id="stop6584"/>
        </linearGradient>
        <radialGradient
                inkscape:collect="always"
                xlink:href="#linearGradient6586"
                id="radialGradient6590"
                cx="286.61401"
                cy="286.8548"
                fx="286.61401"
                fy="286.8548"
                r="287.11203"
                gradientTransform="matrix(1,0,0,0.59831866,0,115.22422)"
                gradientUnits="userSpaceOnUse"/>
        <linearGradient
                inkscape:collect="always"
                xlink:href="#linearGradient6745"
                id="linearGradient6747"
                x1="48.712757"
                y1="56.205729"
                x2="114.76977"
                y2="56.205729"
                gradientUnits="userSpaceOnUse"/>
        <linearGradient
                inkscape:collect="always"
                xlink:href="#linearGradient6753"
                id="linearGradient6755"
                x1="48.712757"
                y1="56.205729"
                x2="114.76977"
                y2="56.205729"
                gradientUnits="userSpaceOnUse"/>
        <linearGradient
                inkscape:collect="always"
                xlink:href="#linearGradient6818"
                id="linearGradient6820"
                x1="-0.49801155"
                y1="286.8548"
                x2="573.72602"
                y2="286.8548"
                gradientUnits="userSpaceOnUse"/>
    </defs>
    <sodipodi:namedview
            id="base"
            pagecolor="#ffffff"
            bordercolor="#666666"
            borderopacity="1.0"
            inkscape:pageopacity="0.0"
            inkscape:pageshadow="2"
            inkscape:zoom="1.4"
            inkscape:cx="158.87398"
            inkscape:cy="203.7355"
            inkscape:document-units="mm"
            inkscape:current-layer="layer1"
            showgrid="false"
            inkscape:window-width="2560"
            inkscape:window-height="1377"
            inkscape:window-x="-8"
            inkscape:window-y="-8"
            inkscape:window-maximized="1"/>
    <metadata
            id="metadata5">
        <rdf:RDF>
            <cc:Work
                    rdf:about="">
                <dc:format>image/svg+xml</dc:format>
                <dc:type
                        rdf:resource="http://purl.org/dc/dcmitype/StillImage"/>
                <dc:title></dc:title>
            </cc:Work>
        </rdf:RDF>
    </metadata>
    <g
            inkscape:groupmode="layer"
            id="layer3"
            inkscape:label="Layer 3"
            style="display:inline">
        <g
                id="g2767"
                transform="matrix(0.26458333,0,0,0.26458333,0.26717583,-30.310703)"
                style="opacity:0.88500001;fill:#182e6b;fill-opacity:1;stroke:#182e6b;stroke-opacity:1">
            <g
                    id="g2710"
                    style="fill:#182e6b;fill-opacity:1;stroke:#182e6b;stroke-opacity:1">
                <g
                        id="g2708"
                        style="fill:#182e6b;fill-opacity:1;stroke:#182e6b;stroke-opacity:1">
                    <path
                            id="path2706"
                            d="m 4.745,365.092 c 6.724,4.341 12.844,9.597 19.461,14.117 6.243,4.264 12.848,7.299 20.694,3.672 9.425,-4.357 19.074,-8.246 28.446,-12.709 12.807,-6.104 25.562,-12.33 39.76,-14.484 12.852,-1.946 25.141,0.277 36.728,6.087 5.688,2.853 7.287,13.962 2.783,19.405 -3.709,4.483 -8.434,7.266 -14.488,7.274 -2.599,0.004 -5.206,0.049 -7.801,0.204 -8.111,0.481 -12.758,4.541 -14.749,13.097 h 19.041 c -4.345,4.435 -9.857,6.593 -9.237,13.451 7.095,-1.211 13.941,-2.382 21.146,-3.614 -0.049,1.016 -0.22,1.86 -0.098,2.66 0.282,1.848 0.302,4.97 1.163,5.238 1.701,0.535 4.467,0.139 5.793,-1.02 3.893,-3.398 8.564,-3.276 13.121,-3.893 7.312,-0.987 14.794,-0.849 21.677,-4.288 4.757,-2.379 8.417,-5.659 10.343,-10.583 1.012,-2.587 2.371,-3.191 5.19,-3.313 3.468,-0.151 7.038,-1.358 10.261,-2.791 3.333,-1.484 5.087,-0.343 6.552,2.411 0.245,0.457 0.498,0.914 0.669,1.404 3.774,10.697 3.505,11.289 -7.515,13.5 -9.319,1.869 -17.414,5.941 -24.104,12.718 -0.853,0.865 -1.538,1.894 -2.403,2.971 3.052,1.061 6.43,1.261 7.984,3.043 1.62,1.865 1.485,5.26 2.183,8.278 6.369,-2.709 12.346,-3.762 18.878,-2.289 -0.343,1.151 -0.648,1.971 -0.832,2.815 -0.682,3.154 -0.192,4.933 3.611,6.214 17.536,5.925 32.097,-0.473 46.05,-10.15 13.403,-9.295 24.974,-20.592 33.713,-34.272 3.321,-5.198 3.872,-12.175 5.614,-18.36 0.343,-1.216 0.363,-2.525 0.424,-2.99 10.384,-1.184 20.372,-1.832 30.164,-3.574 9.184,-1.632 18.099,-4.766 27.263,-6.577 6.189,-1.224 12.623,-1.913 18.919,-1.763 11.224,0.266 18.205,7.227 23.108,16.622 0.449,0.861 0.253,2.212 0.005,3.256 -3.13,13.195 -12.143,20.522 -24.395,24.978 -7.642,2.779 -15.333,5.745 -22.362,9.748 -3.954,2.248 -6.688,6.707 -9.788,10.33 -0.833,0.971 -0.991,2.518 -1.567,4.08 4.827,-0.437 9.14,-0.828 12.294,-1.114 1.93,5.717 3.606,10.674 5.304,15.7 4.219,-3.023 7.556,-5.418 11.244,-8.066 0.318,5.635 0.571,10.062 0.861,15.141 4.292,-3.361 7.988,-5.965 11.342,-8.955 4.443,-3.966 9.368,-4.296 14.893,-3.187 6.128,1.232 12.248,1.828 18.503,-0.167 4.557,-1.453 7.931,-4.048 10.032,-8.07 6.862,-13.138 17.242,-23.346 27.422,-33.778 12.261,-12.562 27.552,-15.161 44.056,-13.807 4.814,0.396 9.14,2.558 11.849,6.703 1.587,2.432 2.668,5.324 3.395,8.156 0.73,2.84 -0.38,5.145 -3.076,6.924 -5.896,3.884 -10.384,11.366 -10.824,17.878 2.803,-2.194 5.116,-4.354 7.76,-5.973 2.158,-1.322 4.668,-2.146 7.107,-2.926 2.048,-0.652 2.705,0.168 2.428,2.444 -0.481,3.933 -0.51,7.919 -0.738,12.085 4.655,-2.347 8.8,-4.439 12.795,-6.455 1.334,5.423 2.484,10.099 3.639,14.774 0.4,0.016 0.8,0.028 1.2,0.045 1.64,-2.249 3.309,-4.477 4.912,-6.753 3.386,-4.811 7.939,-7.809 13.297,-10.318 4.944,-2.317 9.277,-6.034 13.647,-9.433 3.252,-2.53 3.835,-6.173 2.265,-9.878 -1.151,-2.713 -2.273,-5.83 -4.374,-7.67 -5.146,-4.509 -5.822,-10.433 -6.573,-16.496 -2.334,-18.898 0.897,-37.267 5.08,-55.586 3.7,-16.214 7.327,-32.452 7.336,-49.241 0.016,-31.266 -10.343,-58.862 -29.556,-83.236 -17.634,-22.366 -39.943,-39.042 -65.346,-51.502 -23.183,-11.371 -47.434,-19.755 -73.04,-23.962 -24.558,-4.015 -49.188,-5.026 -73.852,-1.729 -24.827,3.321 -48.85,10.017 -72.216,18.979 -10,3.836 -19.816,8.16 -29.678,12.358 -24.888,10.596 -49.6,21.62 -74.684,31.73 -13.938,5.618 -28.466,9.768 -42.746,14.533 -1.057,0.351 -2.232,0.334 -3.697,0.538 0.62,-3.019 1.171,-5.708 1.791,-8.719 -5.675,0.041 -8.551,3.199 -11.208,6.847 -1.183,1.623 -2.497,4.011 -4.084,4.312 -3.644,0.689 -7.516,0.551 -11.228,0.146 -0.641,-0.069 -1.673,-3.312 -1.269,-4.732 0.844,-2.971 0.061,-3.733 -2.795,-3.677 -0.641,0.013 -1.24,0.099 -1.852,0.168 0.763,-4.962 0.747,-11.041 -2.297,-15.61 -3.398,-5.096 -4.908,-0.763 -5.582,4.104 -0.616,4.464 -3.509,7.879 -7.168,7.564 -3.659,-0.315 -6.63,2.424 -6.63,6.12 0,3.696 -2.513,6.69 -5.61,6.69 -3.097,0 -5.61,2.514 -5.61,5.61 0,2.962 2.542,7.552 5.965,10.249 -13.375,19.074 -24.656,39.421 -35.235,60.318 -10.03,19.808 -12.608,40.739 -14.685,62.069 -0.6,6.161 -0.53,12.383 -0.885,18.572 -0.237,4.093 0.967,6.961 4.716,9.38 z"
                            inkscape:connector-curvature="0"
                            style="fill:#182e6b;fill-opacity:1;stroke:#182e6b;stroke-opacity:1"/>

                </g>

            </g>
            <g
                    id="g2712"
                    style="fill:#182e6b;fill-opacity:1;stroke:#182e6b;stroke-opacity:1">
            </g>
            <g
                    id="g2714"
                    style="fill:#182e6b;fill-opacity:1;stroke:#182e6b;stroke-opacity:1">
            </g>
            <g
                    id="g2716"
                    style="fill:#182e6b;fill-opacity:1;stroke:#182e6b;stroke-opacity:1">
            </g>
            <g
                    id="g2718"
                    style="fill:#182e6b;fill-opacity:1;stroke:#182e6b;stroke-opacity:1">
            </g>
            <g
                    id="g2720"
                    style="fill:#182e6b;fill-opacity:1;stroke:#182e6b;stroke-opacity:1">
            </g>
            <g
                    id="g2722"
                    style="fill:#182e6b;fill-opacity:1;stroke:#182e6b;stroke-opacity:1">
            </g>
            <g
                    id="g2724"
                    style="fill:#182e6b;fill-opacity:1;stroke:#182e6b;stroke-opacity:1">
            </g>
            <g
                    id="g2726"
                    style="fill:#182e6b;fill-opacity:1;stroke:#182e6b;stroke-opacity:1">
            </g>
            <g
                    id="g2728"
                    style="fill:#182e6b;fill-opacity:1;stroke:#182e6b;stroke-opacity:1">
            </g>
            <g
                    id="g2730"
                    style="fill:#182e6b;fill-opacity:1;stroke:#182e6b;stroke-opacity:1">
            </g>
            <g
                    id="g2732"
                    style="fill:#182e6b;fill-opacity:1;stroke:#182e6b;stroke-opacity:1">
            </g>
            <g
                    id="g2734"
                    style="fill:#182e6b;fill-opacity:1;stroke:#182e6b;stroke-opacity:1">
            </g>
            <g
                    id="g2736"
                    style="fill:#182e6b;fill-opacity:1;stroke:#182e6b;stroke-opacity:1">
            </g>
            <g
                    id="g2738"
                    style="fill:#182e6b;fill-opacity:1;stroke:#182e6b;stroke-opacity:1">
            </g>
            <g
                    id="g2740"
                    style="fill:#182e6b;fill-opacity:1;stroke:#182e6b;stroke-opacity:1">
            </g>
        </g>
    </g>
    <g
            inkscape:groupmode="layer"
            id="layer2"
            inkscape:label="Layer 2"/>
    <g
            inkscape:label="Layer 1"
            inkscape:groupmode="layer"
            id="layer1"
            transform="translate(-12.900502,-78.821528)">
        <text
                xml:space="preserve"
                style="font-style:normal;font-variant:normal;font-weight:normal;font-stretch:normal;font-size:45.97211075px;line-height:1.25;font-family:Garamond;-inkscape-font-specification:'Garamond, Normal';font-variant-ligatures:normal;font-variant-caps:normal;font-variant-numeric:normal;font-feature-settings:normal;text-align:start;letter-spacing:0px;word-spacing:0px;writing-mode:lr-tb;text-anchor:start;opacity:1;fill:#ffffff;fill-opacity:0.88627451;stroke:none;stroke-width:1.15111256;stroke-miterlimit:4;stroke-dasharray:none;stroke-opacity:1"
                x="39.559837"
                y="133.07855"
                id="text6478"><tspan
         sodipodi:role="line"
         id="tspan6476"
         x="39.559837"
         y="133.07855"
         style="font-style:normal;font-variant:normal;font-weight:normal;font-stretch:normal;font-size:45.97211075px;font-family:Garamond;-inkscape-font-specification:'Garamond, Normal';font-variant-ligatures:normal;font-variant-caps:normal;font-variant-numeric:normal;font-feature-settings:normal;text-align:start;writing-mode:lr-tb;text-anchor:start;fill:#ffffff;fill-opacity:0.88627451;stroke:none;stroke-width:1.15111256;stroke-miterlimit:4;stroke-dasharray:none;stroke-opacity:1">Straph</tspan></text>
    </g>
</svg>
